<?xml version="1.0" encoding="utf-8"?>
<!-- Generator: Adobe Illustrator 15.1.0, SVG Export Plug-In . SVG Version: 6.00 Build 0)  -->
<!DOCTYPE svg PUBLIC "-//W3C//DTD SVG 1.0//EN" "http://www.w3.org/TR/2001/REC-SVG-20010904/DTD/svg10.dtd">
<svg version="1.0" id="Layer_1" xmlns="http://www.w3.org/2000/svg" xmlns:xlink="http://www.w3.org/1999/xlink" x="0px" y="0px"
	 width="110px" height="80px" viewBox="0 0 110 80" enable-background="new 0 0 110 80" xml:space="preserve">
<path fill-rule="evenodd" clip-rule="evenodd" fill="#FF0000" d="M50,0c3.333,0,6.667,0,10,0c0,4.333,0,8.667,0,13
	c3.333,0,6.667,0,10,0c0,4.666,0,9.334,0,14c9.999,0,20.001,0,30,0c0,4.333,0,8.667,0,13c3.333,0,6.667,0,10,0
	c0,13.332,0,26.668,0,40c-36.663,0-73.337,0-110,0c0-13.332,0-26.668,0-40c3.333,0,6.667,0,10,0c0-4.333,0-8.667,0-13
	c9.999,0,20.001,0,30,0c0-4.666,0-9.334,0-14c3.333,0,6.667,0,10,0C50,8.667,50,4.333,50,0z"/>
</svg>
