<?xml version="1.0" encoding="utf-8"?>
<!-- Generator: Adobe Illustrator 15.1.0, SVG Export Plug-In . SVG Version: 6.00 Build 0)  -->
<!DOCTYPE svg PUBLIC "-//W3C//DTD SVG 1.0//EN" "http://www.w3.org/TR/2001/REC-SVG-20010904/DTD/svg10.dtd">
<svg version="1.0" id="Layer_1" xmlns="http://www.w3.org/2000/svg" xmlns:xlink="http://www.w3.org/1999/xlink" x="0px" y="0px"
	 width="80px" height="80px" viewBox="0 0 80 80" enable-background="new 0 0 80 80" xml:space="preserve">
<path fill-rule="evenodd" clip-rule="evenodd" fill="#00CC00" d="M30,0c6.666,0,13.334,0,20,0c0,3.333,0,6.667,0,10
	c3.333,0,6.667,0,10,0c0,3.333,0,6.667,0,10c3.333,0,6.667,0,10,0c0,3.333,0,6.667,0,10c3.333,0,6.667,0,10,0c0,6.666,0,13.334,0,20
	c-6.666,0-13.334,0-20,0c0,3.333,0,6.667,0,10c-3.333,0-6.667,0-10,0c0-3.333,0-6.667,0-10c-6.666,0-13.334,0-20,0
	c0,3.333,0,6.667,0,10c-3.333,0-6.667,0-10,0c0-3.333,0-6.667,0-10c-6.666,0-13.334,0-20,0c0-6.666,0-13.334,0-20
	c3.333,0,6.667,0,10,0c0-3.333,0-6.667,0-10c3.333,0,6.667,0,10,0c0-3.333,0-6.667,0-10c3.333,0,6.667,0,10,0
	C30,6.667,30,3.333,30,0z"/>
<path fill-rule="evenodd" clip-rule="evenodd" fill="#FFFFFF" d="M20,30c0,3.333,0,6.667,0,10c3.333,0,6.667,0,10,0
	c0-3.333,0-6.667,0-10C26.667,30,23.333,30,20,30z"/>
<path fill-rule="evenodd" clip-rule="evenodd" fill="#FFFFFF" d="M50,30c0,3.333,0,6.667,0,10c3.333,0,6.667,0,10,0
	c0-3.333,0-6.667,0-10C56.667,30,53.333,30,50,30z"/>
<path fill-rule="evenodd" clip-rule="evenodd" fill="#00CC00" d="M10,60c3.333,0,6.667,0,10,0c0,3.333,0,6.667,0,10
	c-3.333,0-6.667,0-10,0C10,66.667,10,63.333,10,60z"/>
<path fill-rule="evenodd" clip-rule="evenodd" fill="#00CC00" d="M30,60c6.666,0,13.334,0,20,0c0,3.333,0,6.667,0,10
	c-6.666,0-13.334,0-20,0C30,66.667,30,63.333,30,60z"/>
<path fill-rule="evenodd" clip-rule="evenodd" fill="#00CC00" d="M60,60c3.333,0,6.667,0,10,0c0,3.333,0,6.667,0,10
	c-3.333,0-6.667,0-10,0C60,66.667,60,63.333,60,60z"/>
<path fill-rule="evenodd" clip-rule="evenodd" fill="#00CC00" d="M0,70c3.333,0,6.667,0,10,0c0,3.333,0,6.667,0,10
	c-3.333,0-6.667,0-10,0C0,76.667,0,73.333,0,70z"/>
<path fill-rule="evenodd" clip-rule="evenodd" fill="#00CC00" d="M20,70c3.333,0,6.667,0,10,0c0,3.333,0,6.667,0,10
	c-3.333,0-6.667,0-10,0C20,76.667,20,73.333,20,70z"/>
<path fill-rule="evenodd" clip-rule="evenodd" fill="#00CC00" d="M50,70c3.333,0,6.667,0,10,0c0,3.333,0,6.667,0,10
	c-3.333,0-6.667,0-10,0C50,76.667,50,73.333,50,70z"/>
<path fill-rule="evenodd" clip-rule="evenodd" fill="#00CC00" d="M70,70c3.333,0,6.667,0,10,0c0,3.333,0,6.667,0,10
	c-3.333,0-6.667,0-10,0C70,76.667,70,73.333,70,70z"/>
</svg>
