<?xml version="1.0" encoding="utf-8"?>
<!-- Generator: Adobe Illustrator 15.1.0, SVG Export Plug-In . SVG Version: 6.00 Build 0)  -->
<!DOCTYPE svg PUBLIC "-//W3C//DTD SVG 1.0//EN" "http://www.w3.org/TR/2001/REC-SVG-20010904/DTD/svg10.dtd">
<svg version="1.0" id="Layer_1" xmlns="http://www.w3.org/2000/svg" xmlns:xlink="http://www.w3.org/1999/xlink" x="0px" y="0px"
	 width="108px" height="80px" viewBox="0 0 108 80" enable-background="new 0 0 108 80" xml:space="preserve">
<path fill-rule="evenodd" clip-rule="evenodd" fill="#00CC00" d="M19,0c3.333,0,6.667,0,10,0c0,3.333,0,6.667,0,10
	c-3.333,0-6.667,0-10,0C19,6.667,19,3.333,19,0z"/>
<path fill-rule="evenodd" clip-rule="evenodd" fill="#00CC00" d="M79,0c3.333,0,6.667,0,10,0c0,3.333,0,6.667,0,10
	c-3.333,0-6.667,0-10,0C79,6.667,79,3.333,79,0z"/>
<path fill-rule="evenodd" clip-rule="evenodd" fill="#00CC00" d="M29,10c3,0,6,0,9,0c0,3.333,0,6.667,0,10c10.666,0,21.334,0,32,0
	c0-3.333,0-6.667,0-10c3,0,6,0,9,0c0,3.333,0,6.667,0,10c3.333,0,6.667,0,10,0c0,3,0,6,0,9c3.333,0,6.667,0,10,0
	c0,3.333,0,6.667,0,10c3,0,6,0,9,0c0,10.333,0,20.667,0,31c-3,0-6,0-9,0c0-7,0-14,0-21c-3.333,0-6.667,0-10,0c0,7,0,14,0,21
	c-3.333,0-6.667,0-10,0c0-3.333,0-6.667,0-10c-16.665,0-33.335,0-50,0c0,3.333,0,6.667,0,10c-3.333,0-6.667,0-10,0c0-7,0-14,0-21
	c-3.333,0-6.667,0-10,0c0,7,0,14,0,21c-3,0-6,0-9,0c0-10.333,0-20.667,0-31c3,0,6,0,9,0c0-3.333,0-6.667,0-10c3.333,0,6.667,0,10,0
	c0-3,0-6,0-9c3.333,0,6.667,0,10,0C29,16.667,29,13.333,29,10z"/>
<path fill-rule="evenodd" clip-rule="evenodd" fill="#FFFFFF" d="M29,29c0,3.333,0,6.667,0,10c3,0,6,0,9,0c0-3.333,0-6.667,0-10
	C35,29,32,29,29,29z"/>
<path fill-rule="evenodd" clip-rule="evenodd" fill="#FFFFFF" d="M70,29c0,3.333,0,6.667,0,10c3,0,6,0,9,0c0-3.333,0-6.667,0-10
	C76,29,73,29,70,29z"/>
<path fill-rule="evenodd" clip-rule="evenodd" fill="#00CC00" d="M29,70c7,0,14,0,21,0c0,3.333,0,6.667,0,10c-7,0-14,0-21,0
	C29,76.667,29,73.333,29,70z"/>
<path fill-rule="evenodd" clip-rule="evenodd" fill="#00CC00" d="M60,70c6.333,0,12.667,0,19,0c0,3.333,0,6.667,0,10
	c-6.333,0-12.667,0-19,0C60,76.667,60,73.333,60,70z"/>
</svg>
