<?xml version="1.0" encoding="utf-8"?>
<!-- Generator: Adobe Illustrator 15.1.0, SVG Export Plug-In . SVG Version: 6.00 Build 0)  -->
<!DOCTYPE svg PUBLIC "-//W3C//DTD SVG 1.0//EN" "http://www.w3.org/TR/2001/REC-SVG-20010904/DTD/svg10.dtd">
<svg version="1.0" id="Layer_1" xmlns="http://www.w3.org/2000/svg" xmlns:xlink="http://www.w3.org/1999/xlink" x="0px" y="0px"
	 width="113px" height="80px" viewBox="0 0 113 80" enable-background="new 0 0 113 80" xml:space="preserve">
<path fill-rule="evenodd" clip-rule="evenodd" fill="#00CC00" d="M39,0c12.332,0,24.668,0,37,0c0,3.333,0,6.667,0,10
	c9.666,0,19.334,0,29,0c0,3.333,0,6.667,0,10c2.667,0,5.333,0,8,0c0,9.666,0,19.334,0,29c-8.999,0-18.001,0-27,0
	c0,3.333,0,6.667,0,10c2.667,0,5.333,0,8,0c0,3.667,0,7.333,0,11c-6,0-12,0-18,0c0-3,0-6,0-9c-2.667,0-5.333,0-8,0
	c0-3.333,0-6.667,0-10c-6.333,0-12.667,0-19,0c0,3.333,0,6.667,0,10c-3.333,0-6.667,0-10,0c0,3,0,6,0,9c-6.333,0-12.667,0-19,0
	c0-3.667,0-7.333,0-11c2.667,0,5.333,0,8,0c0-2.667,0-5.333,0-8c-9.333,0-18.667,0-28,0c0-10.333,0-20.667,0-31
	c3.333,0,6.667,0,10,0c0-3.333,0-6.667,0-10c9.666,0,19.334,0,29,0C39,6.667,39,3.333,39,0z"/>
<path fill-rule="evenodd" clip-rule="evenodd" fill="#FFFFFF" d="M28,31c0,3.333,0,6.667,0,10c7,0,14,0,21,0c0-3.333,0-6.667,0-10
	C42,31,35,31,28,31z"/>
<path fill-rule="evenodd" clip-rule="evenodd" fill="#FFFFFF" d="M68,31c0,3.333,0,6.667,0,10c6.666,0,13.334,0,20,0
	c0-3.333,0-6.667,0-10C81.334,31,74.666,31,68,31z"/>
<path fill-rule="evenodd" clip-rule="evenodd" fill="#00CC00" d="M49,61c6.333,0,12.667,0,19,0c0,3,0,6,0,9c-6.333,0-12.667,0-19,0
	C49,67,49,64,49,61z"/>
<path fill-rule="evenodd" clip-rule="evenodd" fill="#00CC00" d="M0,70c6.666,0,13.334,0,20,0c0,3.333,0,6.667,0,10
	c-6.666,0-13.334,0-20,0C0,76.667,0,73.333,0,70z"/>
<path fill-rule="evenodd" clip-rule="evenodd" fill="#00CC00" d="M94,70c6.333,0,12.667,0,19,0c0,3.333,0,6.667,0,10
	c-6.333,0-12.667,0-19,0C94,76.667,94,73.333,94,70z"/>
</svg>
