<?xml version="1.0" encoding="utf-8"?>
<!-- Generator: Adobe Illustrator 15.1.0, SVG Export Plug-In . SVG Version: 6.00 Build 0)  -->
<!DOCTYPE svg PUBLIC "-//W3C//DTD SVG 1.0//EN" "http://www.w3.org/TR/2001/REC-SVG-20010904/DTD/svg10.dtd">
<svg version="1.0" id="Layer_1" xmlns="http://www.w3.org/2000/svg" xmlns:xlink="http://www.w3.org/1999/xlink" x="0px" y="0px"
	 width="113px" height="80px" viewBox="0 0 113 80" enable-background="new 0 0 113 80" xml:space="preserve">
<path fill-rule="evenodd" clip-rule="evenodd" fill="#00CC00" d="M39,0c11.666,0,23.334,0,35,0c0,3.333,0,6.667,0,10
	c9.666,0,19.334,0,29,0c0,3.333,0,6.667,0,10c3.333,0,6.667,0,10,0c0,10.333,0,20.667,0,31c-7,0-14,0-21,0c0,3.333,0,6.667,0,10
	c3.333,0,6.667,0,10,0c0,3.333,0,6.667,0,10c-3.333,0-6.667,0-10,0c0,3,0,6,0,9c-6.666,0-13.334,0-20,0c0-3.333,0-6.667,0-10
	c3.333,0,6.667,0,10,0c0-3,0-6,0-9c-5.333,0-10.667,0-16,0c0-3.333,0-6.667,0-10c-6.333,0-12.667,0-19,0c0,3.333,0,6.667,0,10
	c-5.333,0-10.667,0-16,0c0,3,0,6,0,9c3.333,0,6.667,0,10,0c0,3.333,0,6.667,0,10c-6.666,0-13.334,0-20,0c0-3,0-6,0-9
	c-3.333,0-6.667,0-10,0c0-3.333,0-6.667,0-10c3.333,0,6.667,0,10,0c0-3.333,0-6.667,0-10c-7,0-14,0-21,0c0-10.333,0-20.667,0-31
	c3.333,0,6.667,0,10,0c0-3.333,0-6.667,0-10c9.666,0,19.334,0,29,0C39,6.667,39,3.333,39,0z"/>
<path fill-rule="evenodd" clip-rule="evenodd" fill="#FFFFFF" d="M28,31c0,3.333,0,6.667,0,10c7,0,14,0,21,0c0-3.333,0-6.667,0-10
	C42,31,35,31,28,31z"/>
<path fill-rule="evenodd" clip-rule="evenodd" fill="#FFFFFF" d="M64,31c0,3.333,0,6.667,0,10c7,0,14,0,21,0c0-3.333,0-6.667,0-10
	C78,31,71,31,64,31z"/>
<path fill-rule="evenodd" clip-rule="evenodd" fill="#00CC00" d="M47,61c6.333,0,12.667,0,19,0c0,3.333,0,6.667,0,10
	c-6.333,0-12.667,0-19,0C47,67.667,47,64.333,47,61z"/>
</svg>
